<?xml version="1.0" encoding="UTF-8"?>
<!DOCTYPE svg PUBLIC "-//W3C//DTD SVG 1.1//EN" "http://www.w3.org/Graphics/SVG/1.1/DTD/svg11.dtd">
<svg version="1.1" xmlns="http://www.w3.org/2000/svg" xmlns:xlink="http://www.w3.org/1999/xlink" x="0" y="0" width="500" height="500" viewBox="0, 0, 500, 500">
  <g id="Background">
    <rect x="0" y="0" width="500" height="500" fill="#000000" fill-opacity="0"/>
  </g>
  <g id="Layer_2">
    <path d="M148.102,134.375 L226.375,247.489 L144.284,365.375 L190.579,365.375 L223.989,313.352 C233.057,299.511 240.693,287.102 248.329,273.261 L249.284,273.261 C257.398,287.102 265.034,299.989 274.102,313.352 L308.466,365.375 L355.716,365.375 L275.057,246.057 L353.807,134.375 L307.989,134.375 L276.011,183.534 C267.898,195.943 260.261,207.875 252.625,221.239 L251.67,221.239 C244.034,208.352 236.875,196.898 227.807,184.011 L194.875,134.375 z" fill="#FFFFFF"/>
  </g>
</svg>
