<?xml version="1.0" encoding="utf-8"?>
<!-- Generator: Adobe Illustrator 15.0.0, SVG Export Plug-In . SVG Version: 6.00 Build 0)  -->
<!DOCTYPE svg PUBLIC "-//W3C//DTD SVG 1.1//EN" "http://www.w3.org/Graphics/SVG/1.1/DTD/svg11.dtd">
<svg version="1.1" id="Layer_1" xmlns="http://www.w3.org/2000/svg" xmlns:xlink="http://www.w3.org/1999/xlink" x="0px" y="0px"
	 width="35px" height="35px" viewBox="0 0 35 35" enable-background="new 0 0 35 35" xml:space="preserve">
<rect fill="#FEC23F" width="35" height="35"/>
<g opacity="0.63">
	<path fill="#FFFFFF" d="M31.507,2.387c0,0.85,0.146,4.625,0.582,7.363c-0.194,0.566-1.505,0.756-1.845,0.332
		c-1.311-4.391-4.417-6.752-9.125-6.752c-5.388,0-11.164,4.484-11.164,13.879c0,9.396,5.582,14.447,11.407,14.447
		c5.873,0,8.591-4.107,9.901-7.318c0.389-0.377,1.554-0.234,1.845,0.332c-0.34,3.492-1.165,6.326-1.845,7.412
		c-2.621,0.707-6.067,1.746-9.854,1.746c-4.757,0-9.61-1.086-13.057-3.588c-3.494-2.598-6.164-6.516-6.164-12.369
		c0-5.76,2.523-9.82,5.873-12.512c3.446-2.785,8.397-4.201,13.445-4.201C26.458,1.158,30.05,2.291,31.507,2.387z"/>
</g>
</svg>
