<?xml version="1.0" encoding="UTF-8"?>
<!DOCTYPE svg PUBLIC "-//W3C//DTD SVG 1.1//EN" "http://www.w3.org/Graphics/SVG/1.1/DTD/svg11.dtd">
<svg version="1.1" xmlns="http://www.w3.org/2000/svg" xmlns:xlink="http://www.w3.org/1999/xlink" x="0" y="0" width="500" height="500" viewBox="0, 0, 500, 500">
  <g id="Background">
    <rect x="0" y="0" width="500" height="500" fill="#000000" fill-opacity="0"/>
  </g>
  <g id="Layer_2">
    <path d="M250,101.166 C332.199,101.166 398.834,167.801 398.834,250 C398.834,332.199 332.199,398.834 250,398.834 C167.801,398.834 101.166,332.199 101.166,250 C101.166,167.801 167.801,101.166 250,101.166 z M250,141.166 C189.893,141.166 141.166,189.893 141.166,250 C141.166,310.107 189.893,358.834 250,358.834 C310.107,358.834 358.834,310.107 358.834,250 C358.834,189.893 310.107,141.166 250,141.166 z" fill="#FFFFFF"/>
    <path d="M269,337.5 L269,215.25 L231,215.25 L231,337.5 z M250.25,162.25 C238,162.25 230,170.5 230,181.25 C230,191.75 237.75,200.25 249.75,200.25 C262.5,200.25 270.25,191.75 270.25,181.25 C270,170.5 262.5,162.25 250.25,162.25 z" fill="#FFFFFF"/>
  </g>
</svg>
