<?xml version="1.0" encoding="utf-8"?>
<!-- Generator: Adobe Illustrator 15.0.0, SVG Export Plug-In . SVG Version: 6.00 Build 0)  -->
<!DOCTYPE svg PUBLIC "-//W3C//DTD SVG 1.1//EN" "http://www.w3.org/Graphics/SVG/1.1/DTD/svg11.dtd">
<svg version="1.1" id="Layer_1" xmlns="http://www.w3.org/2000/svg" xmlns:xlink="http://www.w3.org/1999/xlink" x="0px" y="0px"
	 width="50px" height="50px" viewBox="0 0 50 50" enable-background="new 0 0 50 50" xml:space="preserve">
<path enable-background="new    " d="M42.998,20.93H29.173V7.484c-0.12-1.288-1.146-2.35-2.459-2.35h-3.152
	c-1.303,0-2.355,0.997-2.528,2.241v13.553H7.589c-1.288,0.12-2.35,1.145-2.35,2.458v3.152c0,1.303,0.997,2.354,2.241,2.528h13.553
	v13.677c0.223,1.184,1.254,2.118,2.508,2.118h3.143c1.19,0,2.205-0.856,2.488-1.971V29.066h13.676
	c1.186-0.221,2.119-1.252,2.119-2.508v-3.143C44.968,22.227,44.111,21.214,42.998,20.93z"/>
</svg>
