<?xml version="1.0" encoding="utf-8"?>
<!-- Generator: Adobe Illustrator 15.0.0, SVG Export Plug-In . SVG Version: 6.00 Build 0)  -->
<!DOCTYPE svg PUBLIC "-//W3C//DTD SVG 1.1//EN" "http://www.w3.org/Graphics/SVG/1.1/DTD/svg11.dtd">
<svg version="1.1" id="Capa_1" xmlns="http://www.w3.org/2000/svg" xmlns:xlink="http://www.w3.org/1999/xlink" x="0px" y="0px"
	 width="50px" height="50px" viewBox="0 0 50 50" enable-background="new 0 0 50 50" xml:space="preserve">
<g>
	<path d="M34.178,37.824l-7.961-3.98C25.467,33.469,25,32.713,25,31.873v-2.817c0.191-0.233,0.392-0.499,0.6-0.792
		c1.032-1.459,1.859-3.082,2.461-4.833C29.236,22.892,30,21.729,30,20.417v-3.333c0-0.803-0.3-1.58-0.834-2.188v-4.433
		c0.047-0.458,0.23-3.187-1.742-5.438c-1.712-1.953-4.49-2.942-8.257-2.942c-3.767,0-6.545,0.99-8.256,2.941
		c-1.974,2.251-1.79,4.98-1.744,5.438v4.433c-0.533,0.607-0.833,1.385-0.833,2.188v3.333c0,1.014,0.46,1.96,1.248,2.591
		c0.763,3.022,2.361,5.3,2.919,6.03v2.758c0,0.807-0.44,1.547-1.147,1.934l-7.434,4.055C1.501,39.104,0,41.632,0,44.385v3.531
		h38.334v-3.369C38.334,41.682,36.74,39.105,34.178,37.824z"/>
	<path d="M46.223,38.771l-8.103-3.508c-0.192-0.096-0.404-0.33-0.587-0.643l5.438-0.004c0,0,0.314,0.03,0.802,0.03
		c0.894,0,2.198-0.102,3.333-0.589c0.682-0.293,1.188-0.873,1.391-1.59c0.205-0.723,0.076-1.488-0.354-2.102
		c-1.554-2.213-5.182-7.991-5.295-13.853c-0.003-0.101-0.331-10.069-10.175-10.15c-0.989,0.008-1.924,0.13-2.811,0.344
		c0.66,1.745,0.6,3.307,0.555,3.813v3.944c0.54,0.769,0.833,1.681,0.833,2.618v3.333c0,1.589-0.837,3.06-2.173,3.885
		c-0.623,1.685-1.447,3.259-2.457,4.685c-0.125,0.177-0.248,0.345-0.369,0.503v2.384c0,0.367,0.197,0.688,0.525,0.852l7.961,3.979
		c2.989,1.495,4.846,4.499,4.846,7.842v3.37H50v-3.08C50,42.26,48.568,39.944,46.223,38.771z"/>
</g>
</svg>
