<?xml version="1.0" encoding="utf-8"?>
<!-- Generator: Adobe Illustrator 15.0.0, SVG Export Plug-In . SVG Version: 6.00 Build 0)  -->
<!DOCTYPE svg PUBLIC "-//W3C//DTD SVG 1.1//EN" "http://www.w3.org/Graphics/SVG/1.1/DTD/svg11.dtd">
<svg version="1.1" id="Layer_1" xmlns="http://www.w3.org/2000/svg" xmlns:xlink="http://www.w3.org/1999/xlink" x="0px" y="0px"
	 width="50px" height="50px" viewBox="0 0 50 50" enable-background="new 0 0 50 50" xml:space="preserve">
<g>
	<path fill="#D1D3D4" d="M38.334,3.333h-4.656l-1.625-1.625C30.969,0.624,29.467,0,27.93,0h-5.86c-1.537,0-3.038,0.624-4.125,1.708
		l-1.623,1.625h-4.655c-3.216,0-5.833,2.617-5.833,5.833v1.667c0,0.46,0.373,0.833,0.833,0.833h36.667
		c0.459,0,0.832-0.373,0.832-0.833V9.167C44.166,5.95,41.55,3.333,38.334,3.333z"/>
	<path fill="#D1D3D4" d="M41.666,13.333H8.333c-0.46,0-0.833,0.373-0.833,0.833v28.695C7.5,46.799,10.777,50,14.805,50h20.39
		c4.027,0,7.305-3.201,7.305-7.139V14.167C42.5,13.707,42.127,13.333,41.666,13.333z M15.833,42.5c0,0.46-0.374,0.834-0.833,0.834
		s-0.833-0.374-0.833-0.834v-25c0-0.46,0.374-0.833,0.833-0.833s0.833,0.374,0.833,0.833V42.5z M22.5,42.5
		c0,0.46-0.374,0.834-0.833,0.834s-0.833-0.374-0.833-0.834v-25c0-0.46,0.373-0.833,0.833-0.833S22.5,17.04,22.5,17.5V42.5z
		 M29.166,42.5c0,0.46-0.373,0.834-0.832,0.834c-0.461,0-0.834-0.374-0.834-0.834v-25c0-0.46,0.373-0.833,0.834-0.833
		c0.459,0,0.832,0.374,0.832,0.833V42.5z M35.834,42.5c0,0.46-0.374,0.834-0.834,0.834s-0.834-0.374-0.834-0.834v-25
		c0-0.46,0.374-0.833,0.834-0.833s0.834,0.374,0.834,0.833V42.5z"/>
</g>
</svg>
