<?xml version="1.0" encoding="utf-8"?>
<!-- Generator: Adobe Illustrator 15.0.0, SVG Export Plug-In . SVG Version: 6.00 Build 0)  -->
<!DOCTYPE svg PUBLIC "-//W3C//DTD SVG 1.1//EN" "http://www.w3.org/Graphics/SVG/1.1/DTD/svg11.dtd">
<svg version="1.1" id="Layer_1" xmlns="http://www.w3.org/2000/svg" xmlns:xlink="http://www.w3.org/1999/xlink" x="0px" y="0px"
	 width="50px" height="50px" viewBox="0 0 50 50" enable-background="new 0 0 50 50" xml:space="preserve">
<path d="M30.87,25.234c0,0.771-0.505,1.395-1.13,1.395H19.494c-0.624,0-1.13-0.624-1.13-1.395l0,0c0-0.77,0.506-1.394,1.13-1.394
	H29.74C30.365,23.84,30.87,24.465,30.87,25.234L30.87,25.234z"/>
<path d="M47.74,9.805c0,1.269-0.953,2.298-2.129,2.298H3.623c-1.176,0-2.128-1.029-2.128-2.298V9.542
	c0-1.269,0.953-2.298,2.128-2.298h41.988c1.176,0,2.129,1.029,2.129,2.298V9.805z"/>
<path d="M44.721,16.69c0-0.11-0.011-0.215-0.019-0.322v-0.802c0-0.391-0.108-0.717-0.327-0.974
	c-0.144-0.164-0.343-0.275-0.566-0.362c-0.191-0.151-0.403-0.239-0.627-0.239H6.054c-0.167,0-0.325,0.059-0.476,0.145
	c-0.228,0.071-0.439,0.192-0.62,0.373c-0.29,0.291-0.443,0.657-0.443,1.06v19.089c0,2.618,0.941,4.887,2.799,6.742
	c1.856,1.857,4.125,2.8,6.743,2.8h21.104c2.617,0,4.885-0.942,6.74-2.8c1.858-1.854,2.801-4.123,2.801-6.742V17.013
	C44.71,16.906,44.721,16.801,44.721,16.69z M38.353,37.852c-0.894,0.895-1.938,1.329-3.193,1.329H14.057
	c-1.254,0-2.299-0.435-3.193-1.329s-1.33-1.939-1.33-3.194V19.389h30.178l-0.028,15.268C39.683,35.914,39.248,36.959,38.353,37.852z
	"/>
</svg>
