<?xml version="1.0" encoding="utf-8"?>
<!-- Generator: Adobe Illustrator 15.0.0, SVG Export Plug-In . SVG Version: 6.00 Build 0)  -->
<!DOCTYPE svg PUBLIC "-//W3C//DTD SVG 1.1//EN" "http://www.w3.org/Graphics/SVG/1.1/DTD/svg11.dtd">
<svg version="1.1" id="Layer_1" xmlns="http://www.w3.org/2000/svg" xmlns:xlink="http://www.w3.org/1999/xlink" x="0px" y="0px"
	 width="500px" height="500px" viewBox="0 0 500 500" enable-background="new 0 0 500 500" xml:space="preserve">
<path fill="#FFFFFF" stroke="#000000" stroke-width="1.4087" stroke-miterlimit="10" d="M499.629,500.213
	c-48.198-102.426-96.027-119.076-191.834-119.365l-0.486-0.002l-0.012-0.484c-0.081-3.297-0.174-6.529-0.264-9.674
	c-0.21-7.33-0.408-14.252-0.408-20.342c0-47.494-23.68-86.135-52.785-86.135c-29.104,0-52.782,38.641-52.782,86.135
	c0,6.096-0.199,12.897-0.409,20.1c-0.108,3.715-0.22,7.543-0.31,11.447l-0.011,0.461l-0.461,0.025
	C103.539,387.834,27.876,399.968,2.999,500.12l-0.971-0.24c11.629-46.813,34.272-76.924,71.26-94.756
	c32.353-15.599,72.241-20.653,126.062-23.717c0.088-3.747,0.195-7.421,0.3-10.991c0.21-7.193,0.409-13.99,0.409-20.07
	c0-48.046,24.126-87.135,53.782-87.135c29.657,0,53.785,39.089,53.785,87.135c0,6.074,0.198,12.991,0.408,20.313
	c0.086,2.989,0.174,6.062,0.252,9.19c54.616,0.201,88.017,6.756,115.217,22.591c29.741,17.313,53.499,47.337,77.031,97.347
	L499.629,500.213z"/>
<path fill="#FFFFFF" d="M500.081,500c-46.947-99.768-93.84-119.355-192.284-119.652c-0.271-11.021-0.672-21.324-0.672-30.002
	c0-47.849-23.857-86.635-53.285-86.635c-29.427,0-53.282,38.786-53.282,86.635c0,9.223-0.455,20.047-0.719,31.534
	C101.236,387.464,27.326,400.108,2.513,500"/>
<path fill="#FFFFFF" stroke="#000000" stroke-width="1.1966" stroke-miterlimit="10" d="M351.243,135.443
	C378.5,212.5,373.5,295.5,332.597,350.407c-38.278,51.385-146.845-5.366-196.129-89.354C87.185,177.06,92.467,70.138,151.5,35.5
	C245.5-12.5,325.5,35.5,351.243,135.443z"/>
</svg>
