<?xml version="1.0" encoding="utf-8"?>
<!-- Generator: Adobe Illustrator 15.0.0, SVG Export Plug-In . SVG Version: 6.00 Build 0)  -->
<!DOCTYPE svg PUBLIC "-//W3C//DTD SVG 1.1//EN" "http://www.w3.org/Graphics/SVG/1.1/DTD/svg11.dtd">
<svg version="1.1" id="Layer_1" xmlns="http://www.w3.org/2000/svg" xmlns:xlink="http://www.w3.org/1999/xlink" x="0px" y="0px"
	 width="35px" height="35px" viewBox="0 0 35 35" enable-background="new 0 0 35 35" xml:space="preserve">
<g>
	<circle cx="11.867" cy="11.013" r="2.344"/>
	<path d="M22.619,10.573l-7.002,7.001l-2.315-2.314c-0.274-0.275-0.72-0.275-0.994,0l-2.315,2.314v2.812h18.75v-4.688l-5.129-5.126
		C23.338,10.298,22.895,10.298,22.619,10.573z"/>
	<path d="M31.555,3.513H7.179c-1.554,0-2.812,1.26-2.812,2.812v0.857H3.312C1.76,7.182,0.5,8.441,0.5,9.994v16.875
		c0,1.553,1.261,2.812,2.812,2.812h24.375c1.553,0,2.812-1.263,2.812-2.812v-0.857h1.054c1.553,0,2.812-1.26,2.812-2.812V6.326
		C34.367,4.773,33.105,3.513,31.555,3.513z M27.688,26.518c0,0.193-0.153,0.354-0.352,0.354H3.664c-0.194,0-0.353-0.156-0.353-0.354
		V10.348c0-0.195,0.157-0.352,0.353-0.352h0.701V23.2c0,1.553,1.26,2.812,2.812,2.812h20.509L27.688,26.518L27.688,26.518z
		 M31.555,22.848c0,0.195-0.158,0.354-0.354,0.354H7.531c-0.195,0-0.353-0.156-0.353-0.354V6.677c0-0.194,0.157-0.352,0.353-0.352
		h23.672c0.193,0,0.352,0.157,0.352,0.352V22.848L31.555,22.848z"/>
</g>
</svg>
