<?xml version="1.0" encoding="utf-8"?>
<!-- Generator: Adobe Illustrator 15.0.0, SVG Export Plug-In . SVG Version: 6.00 Build 0)  -->
<!DOCTYPE svg PUBLIC "-//W3C//DTD SVG 1.1//EN" "http://www.w3.org/Graphics/SVG/1.1/DTD/svg11.dtd">
<svg version="1.1" id="Layer_1" xmlns="http://www.w3.org/2000/svg" xmlns:xlink="http://www.w3.org/1999/xlink" x="0px" y="0px"
	 width="50px" height="50px" viewBox="0 0 50 50" enable-background="new 0 0 50 50" xml:space="preserve">
<g>
	<g>
		<path fill="#231F20" d="M20.521,42.068c-0.063-0.168-0.084-0.311-0.063-0.424c0.022-0.115-0.051-0.211-0.219-0.283
			c-0.168-0.073-0.251-0.131-0.251-0.174c0-0.041-0.121-0.071-0.362-0.092c-0.241-0.022-0.361-0.033-0.361-0.033h-0.408h-0.346
			H9.469c-1.381,0-2.564-0.49-3.548-1.476c-0.983-0.983-1.476-2.166-1.476-3.547V13.937c0-1.381,0.492-2.563,1.476-3.547
			s2.167-1.476,3.548-1.476h10.047c0.271,0,0.485-0.068,0.643-0.204c0.156-0.136,0.261-0.34,0.313-0.613
			c0.053-0.271,0.084-0.517,0.095-0.737c0.01-0.22,0.005-0.498-0.016-0.833C20.53,6.193,20.52,5.984,20.52,5.899
			c0-0.272-0.1-0.507-0.299-0.706c-0.199-0.199-0.434-0.298-0.706-0.298H9.469c-2.491,0-4.621,0.884-6.389,2.653
			c-1.769,1.768-2.653,3.898-2.653,6.389V36.04c0,2.489,0.884,4.619,2.653,6.388c1.768,1.771,3.898,2.653,6.389,2.653h10.047
			c0.272,0,0.486-0.067,0.644-0.203c0.156-0.136,0.261-0.34,0.313-0.612c0.053-0.271,0.083-0.519,0.095-0.738
			c0.01-0.219,0.005-0.495-0.016-0.83C20.531,42.361,20.521,42.152,20.521,42.068z"/>
		<path fill="#231F20" d="M49.061,23.576L31.979,6.497C31.583,6.1,31.111,5.9,30.566,5.9c-0.543,0-1.015,0.199-1.412,0.597
			c-0.398,0.398-0.596,0.869-0.596,1.413v9.042H14.492c-0.544,0-1.015,0.199-1.413,0.596c-0.397,0.398-0.596,0.869-0.596,1.414
			v12.056c0,0.545,0.199,1.017,0.596,1.412c0.398,0.397,0.869,0.598,1.413,0.598h14.066v9.043c0,0.543,0.196,1.015,0.596,1.41
			c0.397,0.399,0.869,0.599,1.412,0.599c0.545,0,1.017-0.198,1.414-0.599l17.08-17.078c0.396-0.397,0.597-0.868,0.597-1.413
			C49.656,24.446,49.457,23.974,49.061,23.576z"/>
	</g>
</g>
</svg>
