<?xml version="1.0" encoding="utf-8"?>
<!-- Generator: Adobe Illustrator 15.0.0, SVG Export Plug-In . SVG Version: 6.00 Build 0)  -->
<!DOCTYPE svg PUBLIC "-//W3C//DTD SVG 1.1//EN" "http://www.w3.org/Graphics/SVG/1.1/DTD/svg11.dtd">
<svg version="1.1" id="Layer_1" xmlns="http://www.w3.org/2000/svg" xmlns:xlink="http://www.w3.org/1999/xlink" x="0px" y="0px"
	 width="35px" height="35px" viewBox="0 0 35 35" enable-background="new 0 0 35 35" xml:space="preserve">
<g>
	<circle fill="#BCBEC0" cx="11.367" cy="11.013" r="2.344"/>
	<path fill="#BCBEC0" d="M22.119,10.573l-7.002,7.001l-2.315-2.314c-0.274-0.275-0.72-0.275-0.994,0l-2.315,2.314v2.812h18.75
		v-4.688l-5.129-5.126C22.838,10.298,22.395,10.298,22.119,10.573z"/>
	<path fill="#BCBEC0" d="M31.055,3.513H6.679c-1.554,0-2.812,1.26-2.812,2.812v0.857H2.812C1.26,7.182,0,8.441,0,9.994v16.875
		c0,1.553,1.261,2.812,2.812,2.812h24.375c1.553,0,2.812-1.262,2.812-2.812v-0.857h1.054c1.553,0,2.812-1.26,2.812-2.812V6.326
		C33.867,4.773,32.605,3.513,31.055,3.513z M27.188,26.518c0,0.193-0.154,0.354-0.352,0.354H3.164c-0.194,0-0.353-0.156-0.353-0.354
		V10.348c0-0.195,0.157-0.352,0.353-0.352h0.701V23.2c0,1.553,1.26,2.812,2.812,2.812h20.509L27.188,26.518L27.188,26.518z
		 M31.055,22.848c0,0.195-0.158,0.354-0.354,0.354H7.031c-0.195,0-0.353-0.156-0.353-0.354V6.677c0-0.194,0.157-0.352,0.353-0.352
		h23.672c0.193,0,0.352,0.157,0.352,0.352V22.848L31.055,22.848z"/>
</g>
</svg>
