<?xml version="1.0" encoding="utf-8"?>
<!-- Generator: Adobe Illustrator 15.0.0, SVG Export Plug-In . SVG Version: 6.00 Build 0)  -->
<!DOCTYPE svg PUBLIC "-//W3C//DTD SVG 1.1//EN" "http://www.w3.org/Graphics/SVG/1.1/DTD/svg11.dtd">
<svg version="1.1" id="Layer_1" xmlns="http://www.w3.org/2000/svg" xmlns:xlink="http://www.w3.org/1999/xlink" x="0px" y="0px"
	 width="50px" height="50px" viewBox="0 0 50 50" enable-background="new 0 0 50 50" xml:space="preserve">
<g>
	<path fill="#231F20" d="M25.115,35.2C19.46,35.2,14.9,30.62,14.9,24.985c0-5.635,4.56-10.215,10.215-10.215
		c5.654,0,10.215,4.585,10.215,10.215C35.33,30.615,30.77,35.2,25.115,35.2z M46.525,19.88h-1.94c-1.585,0-2.91-1.33-2.91-2.96
		c0-0.815,0.345-1.545,0.96-2.095l1.25-1.225c1.24-1.225,1.24-3.215,0-4.455l-2.845-2.82c-0.56-0.56-1.39-0.895-2.235-0.895
		c-0.845,0-1.66,0.33-2.234,0.895l-1.197,1.2c-0.575,0.64-1.365,0.985-2.195,0.985c-1.635,0-3.021-1.33-3.021-2.9V3.68
		c0-1.725-1.34-3.205-3.065-3.205H23.2c-1.76,0-3.165,1.47-3.165,3.205v1.94c0,1.57-1.355,2.9-2.985,2.9
		c-0.815,0-1.56-0.345-2.12-0.945L13.69,6.35c-0.56-0.575-1.39-0.895-2.235-0.895c-0.845,0-1.66,0.33-2.235,0.895L6.375,9.16
		c-1.225,1.225-1.225,3.23,0,4.445l1.2,1.2c0.64,0.575,0.995,1.3,0.995,2.13c0,1.635-1.33,2.96-2.91,2.96H3.72
		C1.97,19.88,0.505,21.31,0.505,23.05v1.94v1.939c0,1.725,1.47,3.166,3.215,3.166h1.94c1.585,0,2.91,1.326,2.91,2.959
		c0,0.812-0.355,1.567-0.995,2.146l-1.2,1.175c-1.225,1.225-1.225,3.215,0,4.445l2.845,2.834c0.56,0.576,1.39,0.896,2.235,0.896
		c0.845,0,1.66-0.329,2.235-0.896l1.24-1.225c0.535-0.603,1.29-0.945,2.105-0.945c1.635,0,2.985,1.33,2.985,2.897v1.94
		c0,1.725,1.405,3.201,3.155,3.201h3.88c1.735,0,3.18-1.469,3.18-3.201v-1.94c0-1.567,1.344-2.897,2.979-2.897
		c0.812,0,1.566,0.354,2.16,0.986l1.197,1.196c0.574,0.562,1.393,0.896,2.234,0.896c0.846,0,1.66-0.33,2.235-0.896l2.845-2.835
		c1.225-1.229,1.225-3.229,0-4.455l-1.25-1.229c-0.615-0.549-0.96-1.326-0.96-2.129c0-1.635,1.33-3.016,2.91-3.016h1.94
		c1.731,0,2.975-1.314,2.975-3.05v-1.965v-1.94C49.5,21.31,48.26,19.88,46.525,19.88z"/>
</g>
</svg>
